<svg xmlns="http://www.w3.org/2000/svg" viewBox="0 0 773 244.38"><defs><style>.a{fill:#fff}</style></defs><path d="M182 0h591v196H182z"/><path class="a" d="M223.23 89.8h-7.94l23-62.54h7.82L269 89.8h-7.9l-5.9-16.74h-26.08zm18.57-52.65l-10.29 29.2h21.31l-10.29-29.2zm44.58-9.89v27.85h33.35V27.26h7.58V89.8h-7.58v-28h-33.35v28h-7.57V27.26zM417 46.8h-7.6a15.83 15.83 0 00-3.51-7.3 16.91 16.91 0 00-6.26-4.5 20.11 20.11 0 00-7.82-1.52 19 19 0 00-10.28 2.87 19.8 19.8 0 00-7.3 8.46 31.31 31.31 0 00-2.7 13.71 31.37 31.37 0 002.7 13.71 19.8 19.8 0 007.3 8.46 19.05 19.05 0 0010.28 2.87 20.12 20.12 0 007.82-1.56 16.68 16.68 0 006.26-4.49 15.74 15.74 0 003.51-7.29h7.6a24.55 24.55 0 01-4.73 11 23.58 23.58 0 01-8.86 7 27.35 27.35 0 01-11.57 2.43 26.24 26.24 0 01-14.23-3.91 26.85 26.85 0 01-9.81-11.12 38.13 38.13 0 01-3.57-17.1 38.1 38.1 0 013.57-17.1 26.85 26.85 0 019.81-11.12 26.15 26.15 0 0114.23-3.91 27.35 27.35 0 0111.57 2.43 23.66 23.66 0 018.86 7A24.64 24.64 0 01417 46.8zm13.11 43h-7.94l23-62.54H453l23 62.54h-8l-5.89-16.74H436zm18.56-52.65l-10.29 29.2h21.32l-10.29-29.2zM521 89.8l-12.44-24.31h-15.3V89.8h-7.57V27.26h20.89q7.44 0 12.08 2.62a16.18 16.18 0 016.77 7 21.22 21.22 0 012.16 9.55 19 19 0 01-2.93 10.82 17.8 17.8 0 01-8.37 6.56l13.5 26zM493.26 34v24.53h12.46a19.67 19.67 0 008.64-1.53 9.35 9.35 0 004.46-4.31 14.1 14.1 0 001.32-6.22 16.61 16.61 0 00-1.07-5.8 9.72 9.72 0 00-4-4.76c-2-1.26-4.79-1.9-8.49-1.9zM239.72 168.8H218.5v-62.54H240a31.41 31.41 0 0115.74 3.74 24.89 24.89 0 0110.15 10.75 36.74 36.74 0 013.55 16.75 36.71 36.71 0 01-3.56 16.78A25.07 25.07 0 01255.66 165a31.88 31.88 0 01-15.94 3.8zm-.4-52.1h-8.76v41.66h8.58q9 0 13.62-5.12t4.61-15.74q0-10.64-4.58-15.72t-13.47-5.08zm79.62 41.96v10.14h-40.65v-62.54h40.5v10.13h-28.43v16.07h24.52v10.11h-24.52v16.09zm57.26-52.4v10.13h-18.75v52.41h-12v-52.41h-18.72v-10.13zm7.94 62.54h-12.95l23.06-62.54h12.8l23.06 62.54h-12.92l-4.55-13.31h-23.95zm16.16-47.34l-8.25 24.13h17.23L401 121.46zm49.17-15.2v62.54H437.4v-62.54zm49.08 52.4v10.14H460v-62.54h12v52.4zm21.53-52.4v62.54H508v-62.54zm60.56 0v62.54h-11.82L543.17 127h-.52v41.8h-12.07v-62.54h11.91l25.6 41.93h.52v-41.93zM643 136.12v9.2a23.08 23.08 0 01-12.75 21.31 27.89 27.89 0 01-13 3 27 27 0 01-14.25-3.76 26.08 26.08 0 01-9.88-11q-3.6-7.15-3.61-17.3t3.58-17.38a26.86 26.86 0 0139.81-9.71q6.92 5.13 9.78 14.69l-12.18 1.31a14 14 0 00-5.36-7.74 14.52 14.52 0 00-8.26-2.49 14 14 0 00-7.78 2.26 15.2 15.2 0 00-5.49 7 30.68 30.68 0 00-2 12.08 29.89 29.89 0 002.06 12 14.87 14.87 0 005.6 6.89 14.69 14.69 0 008 2.21 15.39 15.39 0 007.17-1.65 12.6 12.6 0 005-4.65 13.31 13.31 0 001.85-7.13h-13.1v-9.2z"/><path d="M184.66 11.34v173.32H11.34V11.34h173.32M196 0H0v196h196V0z"/><path d="M35 243.91l-5.35-10.46H23.1v10.46h-3.26V217h9a10.48 10.48 0 015.16 1.13 7 7 0 012.92 3 9.12 9.12 0 01.93 4.11 8.15 8.15 0 01-1.26 4.65 7.65 7.65 0 01-3.6 2.83l5.8 11.18zm-11.93-24v10.57h5.36a8.43 8.43 0 003.72-.68 4.07 4.07 0 001.92-1.85 6.24 6.24 0 00.56-2.68 7.08 7.08 0 00-.46-2.5 4.11 4.11 0 00-1.72-2 6.69 6.69 0 00-3.65-.82zM59.73 241v2.89H43.28V217h16.24v2.89h-13V229h11.63v2.89H46.54V241zm8.94-24v26.91h-3.26V217zm26.9 0v26.91h-3.15l-14.14-21.08H78v21.08h-3.24V217h3.16l14.19 21.18h.26V217zm9.36 0v26.91h-3.26V217zm28.43 13.56v2.89a11 11 0 01-1.44 5.74A10 10 0 01128 243a11.8 11.8 0 01-5.61 1.33 11.21 11.21 0 01-10.45-6.47 18.44 18.44 0 010-14.71 11.55 11.55 0 014.19-4.79 11.08 11.08 0 016-1.68 10.74 10.74 0 016.91 2.32 12.36 12.36 0 014.07 6.46h-3.31a8.21 8.21 0 00-3-4.26 7.83 7.83 0 00-4.66-1.47 7.91 7.91 0 00-4.35 1.24 8.55 8.55 0 00-3.12 3.63 13.63 13.63 0 00-1.15 5.91 13.35 13.35 0 001.17 5.89 8.46 8.46 0 003.16 3.64 8.34 8.34 0 004.5 1.24 8.15 8.15 0 004.05-1 7.18 7.18 0 002.77-2.75 8 8 0 001-4h-6.57v-2.89zM155.38 241v2.89h-16.45V217h16.24v2.89h-13V229h11.62v2.89h-11.6V241zm26.49-24v26.91h-3.15l-14.14-21.08h-.26v21.08h-3.26V217h3.15l14.19 21.18h.27V217zm18.77 15.4a2.36 2.36 0 01-2.37-2.37 2.2 2.2 0 01.71-1.65 2.34 2.34 0 011.66-.66 2.28 2.28 0 011.67.69A2.19 2.19 0 01203 230a2.36 2.36 0 01-2.36 2.37zm19.7-15.4l5.66 21.92h.26L232 217h3.68l5.73 21.92h.26l5.58-21.92h3.31l-7.35 26.91h-3.37l-5.94-21.44h-.21l-5.94 21.44h-3.36L217 217zm33.39 26.91h-3.42l9.88-26.91h3.37l9.88 26.91H270l-2.53-7.2h-11.2zm8-22.65l-4.43 12.56h9.17L262 221.26zm17.49-4.26l6.94 11.19h.21L293.3 217h3.84l-8.46 13.46 8.46 13.45h-3.84l-6.93-11h-.21l-6.94 11h-3.84l8.67-13.45-8.67-13.46zm38.63 24v2.89H301.4V217h16.24v2.89h-13V229h11.61v2.89h-11.59V241zm26.49-24v26.91h-3.16l-14.13-21.08h-.27v21.08h-3.26V217h3.16l14.19 21.18h.26V217zm18.76 15.4a2.36 2.36 0 01-2.37-2.37 2.2 2.2 0 01.71-1.65 2.38 2.38 0 011.66-.66 2.26 2.26 0 011.67.69 2.19 2.19 0 01.69 1.62 2.36 2.36 0 01-2.36 2.37zm27.9 1.79h-5.79v9.72H382V217h9a10.51 10.51 0 015.15 1.12 7 7 0 012.95 3 9.74 9.74 0 01.94 4.34 10 10 0 01-.94 4.39 7.16 7.16 0 01-2.93 3.12 10 10 0 01-5.17 1.22zm-5.79-14.3v11.41H391a6.72 6.72 0 003.42-.76 4.26 4.26 0 001.81-2.06 7.53 7.53 0 00.55-3 6.23 6.23 0 00-1.28-4q-1.29-1.58-4.56-1.57zm42.9 10.57a16.29 16.29 0 01-1.54 7.35 11.6 11.6 0 01-4.21 4.79 12 12 0 01-12.25 0 11.62 11.62 0 01-4.22-4.79 18.44 18.44 0 010-14.71 11.62 11.62 0 014.22-4.79 12 12 0 0112.25 0 11.6 11.6 0 014.21 4.79 16.31 16.31 0 011.54 7.36zm-3.15 0a13.48 13.48 0 00-1.17-5.91 8.5 8.5 0 00-3.13-3.63 8.52 8.52 0 00-8.85 0 8.52 8.52 0 00-3.14 3.63 15.58 15.58 0 000 11.8 8.49 8.49 0 003.14 3.64 8.52 8.52 0 008.85 0 8.47 8.47 0 003.13-3.64 13.35 13.35 0 001.21-5.89zM449.34 241v2.89h-15.76V217h3.25v24zm8.31-24v26.91h-3.26V217zm15.77 19.24V217h3.25v19.24a7.88 7.88 0 01-2.15 6 8 8 0 01-5.78 2.07 8.65 8.65 0 01-3.89-.87 7 7 0 01-2.79-2.46 6.67 6.67 0 01-1.05-3.77h3.16a3.69 3.69 0 001.42 3.11 5.47 5.47 0 005.41.68 3.62 3.62 0 001.71-1.55 6.13 6.13 0 00.71-3.21zm24.07-12.3a4.75 4.75 0 00-2-3.29 7 7 0 00-4.07-1.13 6.8 6.8 0 00-4.31 1.28 4 4 0 00-1.61 3.2 3.29 3.29 0 001.26 2.66 10.53 10.53 0 003.95 1.76l2.73.73a13.19 13.19 0 015.69 2.8 6 6 0 011.88 4.56 7.2 7.2 0 01-1.14 4 7.81 7.81 0 01-3.31 2.81 12.07 12.07 0 01-5.28 1 10.64 10.64 0 01-6.88-2 7.25 7.25 0 01-2.79-5.36H485a4.11 4.11 0 001 2.52 5.43 5.43 0 002.28 1.47 9.1 9.1 0 003 .48 8.66 8.66 0 003.35-.61 5.75 5.75 0 002.36-1.71 4.06 4.06 0 00.86-2.57 3.16 3.16 0 00-1.32-2.75 14.05 14.05 0 00-4-1.72l-3.31-.94a12.44 12.44 0 01-5-2.59 5.67 5.67 0 01-1.84-4.4 6.53 6.53 0 011.23-4 8.12 8.12 0 013.31-2.63 11.31 11.31 0 014.66-.94 10.8 10.8 0 014.6.94 7.94 7.94 0 013.18 2.59 7.11 7.11 0 011.31 3.78zm27.59-6.94v2.89h-8.46v24h-3.26v-24h-8.46V217zm21.49 24v2.89h-16.45V217h16.24v2.89h-13V229H545v2.89h-11.62V241zm26.49-24v26.91h-3.15l-14.14-21.08h-.26v21.08h-3.26V217h3.15l14.19 21.18h.27V217zm18.76 15.4a2.36 2.36 0 01-2.36-2.37 2.2 2.2 0 01.71-1.65 2.34 2.34 0 011.65-.66 2.29 2.29 0 011.68.69 2.19 2.19 0 01.69 1.62 2.36 2.36 0 01-2.37 2.37zm40.52-6.99h-3.25a6.93 6.93 0 00-1.51-3.14 7.32 7.32 0 00-2.7-1.93 8.6 8.6 0 00-3.36-.66 8.12 8.12 0 00-4.42 1.24 8.45 8.45 0 00-3.14 3.63 15.46 15.46 0 000 11.8 8.42 8.42 0 003.14 3.65 8.12 8.12 0 004.42 1.24 8.6 8.6 0 003.36-.66 7.32 7.32 0 002.7-1.93 6.93 6.93 0 001.51-3.14h3.25a10.58 10.58 0 01-2 4.72 10.17 10.17 0 01-3.81 3 11.76 11.76 0 01-5 1.05 11.31 11.31 0 01-6.13-1.68 11.6 11.6 0 01-4.21-4.79 18.33 18.33 0 010-14.71 11.6 11.6 0 014.21-4.79 11.31 11.31 0 016.13-1.68 11.76 11.76 0 015 1.05 10.17 10.17 0 013.81 3 10.58 10.58 0 012 4.73zm27.96 5.05a16.43 16.43 0 01-1.53 7.35 11.62 11.62 0 01-4.22 4.79 12 12 0 01-12.25 0 11.6 11.6 0 01-4.21-4.79 18.33 18.33 0 010-14.71 11.6 11.6 0 014.21-4.79 12 12 0 0112.25 0 11.62 11.62 0 014.22 4.79 16.44 16.44 0 011.53 7.36zm-3.15 0a13.62 13.62 0 00-1.16-5.91 8.52 8.52 0 00-3.14-3.63 8.5 8.5 0 00-8.84 0 8.45 8.45 0 00-3.14 3.63 15.46 15.46 0 000 11.8A8.42 8.42 0 00644 240a8.5 8.5 0 008.84 0 8.49 8.49 0 003.14-3.64 13.5 13.5 0 001.17-5.9zm8.46 13.45h-3.41l9.88-26.91h3.36l9.88 26.91h-3.41l-2.54-7.2h-11.22zm8-22.65l-4.43 12.56h9.17l-4.42-12.56zm31.56-4.26v2.89h-8.46v24h-3.25v-24H685V217zm21.5 24v2.89h-16.45V217h16.24v2.89h-13V229h11.61v2.89h-11.59V241zm26.49-24v26.91H750l-14.14-21.08h-.27v21.08h-3.25V217h3.15l14.19 21.18h.32V217z" opacity=".71"/><path d="M92.78 25.1l-47.37 21a13.6 13.6 0 00-8 12.39v31.8c0 37.55 26 72.67 60.9 81.19 34.91-8.52 60.9-43.64 60.9-81.19V58.53a13.6 13.6 0 00-8.06-12.39l-47.36-21a13.42 13.42 0 00-11.01-.04z"/><path class="a" d="M149.35 54.27L98.26 33.65 47.38 55.33v42.4c0 42.76 46.09 65.53 50.88 65.53S149.14 135.7 149.14 97zM144 97.1c0 34.76-41.43 59.54-45.73 59.54s-45.75-20.47-45.75-58.91V59.62l45.74-19.49 45.93 18.53z"/><path class="a" d="M96.5 40h3v117h-3z"/><path class="a" d="M97.397 92.41l1.124-2.782 46.684 18.862-1.124 2.781z"/><path class="a" d="M97.465 89.618l1.123 2.782-46.683 18.86-1.124-2.78z"/><path class="a" d="M77 100h-3V85l3-1.2V100zm0-26.2L74 75V61l3-1.2v14zM123.5 63l-3-1.2V49h3v14zm0 38h-3V83.8l3 1.2v16zm0 27l-3 3.2v-20.4l3 1.2v16zM81 123.5l-2.2-3H97v3H81z"/></svg>